<svg xmlns="http://www.w3.org/2000/svg" width="19.25" height="22" viewBox="0 0 19.25 22"><defs><style>.a{fill:#0b4acf;}</style></defs><path class="a" d="M17.152,8.954l-1.4-1.395L8.778,14.537a2.96,2.96,0,0,0,4.187,4.186l8.374-8.373a4.934,4.934,0,0,0-6.978-6.977L5.569,12.164l-.019.018a6.881,6.881,0,0,0,9.732,9.73l.018-.019h0l6-6-1.4-1.395-6,6-.018.018a4.907,4.907,0,0,1-6.941-6.939l.019-.018h0l8.793-8.791a2.96,2.96,0,0,1,4.187,4.186L11.57,17.327a.987.987,0,0,1-1.4-1.395l6.978-6.978Z" transform="translate(-3.535 -1.928)"/></svg>