<svg xmlns="http://www.w3.org/2000/svg" xmlns:xlink="http://www.w3.org/1999/xlink" width="1922" height="1149.221" viewBox="0 0 1922 1149.221"><defs><style>.a,.d{fill:#eef0f8;}.b{fill:#eccee4;}.c{fill:#d7e2ef;}.d{opacity:0.608;}.e{opacity:0.404;fill:url(#a);}</style><linearGradient id="a" x1="-0.01" y1="0.61" x2="1.049" y2="0.443" gradientUnits="objectBoundingBox"><stop offset="0" stop-color="#e20067"/><stop offset="1" stop-color="#0b4acf"/></linearGradient></defs><g transform="translate(0 -5731.247)"><path class="a" d="M-10099.347,960.761c-137.806,0-296.207-15.81-463.909-32.548-126.544-12.63-257.393-25.69-387.682-32.762-88.12-4.784-184.735-7.209-287.16-7.209-40.25,0-81.494.379-122.587,1.126-32.878.6-65.743,1.432-97.683,2.478-54.812,1.8-87.63,3.587-87.955,3.6v-3.223c.026-139.326.173-834.367.426-834.786a.332.332,0,0,0-.041-.069l-.028-.045-.033-.053V40.126c12.027-25.1,82.613-69.9,420.217-87.922,27.369-1.461,56.937-2.2,87.883-2.2,34.836,0,71.551.893,112.242,2.73,36.474,1.647,75.492,4.027,119.284,7.278,81.7,6.064,166.614,14.158,256.518,22.727,66.783,6.365,135.841,12.947,205.954,18.893,79.158,6.713,149.1,11.691,213.809,15.218,194.457,10.6,321.619,16.255,394.052,19.13,79.06,3.138,111.377,3.729,111.694,3.735V895.535a5.583,5.583,0,0,1-.43,2.084,17.163,17.163,0,0,1-3.7,5.611,46.3,46.3,0,0,1-9.352,7.426,114.76,114.76,0,0,1-17.924,8.843c-17.8,7.158-42.268,13.54-72.711,18.967-37.808,6.741-85.057,12.034-140.436,15.732-31.37,2.1-65.883,3.71-102.58,4.8C-10010.933,960.167-10053.955,960.761-10099.347,960.761Z" transform="translate(11546.322 5781.247)"/><path class="b" d="M1920,457.729s-159.5-143.739-639.5-143.739C1034.254,313.99,430.42,463,208.335,468.547S0,442.127,0,442.127V27.077s-28.54,46.181,332.71,40.45S1189.64-25.168,1445-25.168c480,0,475,99.659,475,99.659Z" transform="translate(1.533 5756.415)"/><path class="c" d="M-.531,457.729s159.5-143.739,639.5-143.739c246.24,0,850.074,149.014,1072.159,154.557s208.338-26.42,208.338-26.42V27.077s28.54,46.181-332.71,40.45S729.826-25.168,474.466-25.168c-480,0-475,99.659-475,99.659Z" transform="translate(1.533 6411.275)"/><path class="d" d="M-.534-42.511S245.888,67.335,673.8,65.376,1235.53,48.995,1554.058.357s365.408,24.206,365.408,24.206V330.476s-111.678-.525-442.8,66-482.084,216.561-881.7,200.1S-.534,330.476-.534,330.476Z" transform="translate(2.533 5951.618)"/><path class="e" d="M-.534-230.77s284.361,127.9,672.2,155.677,560.625-.406,879.153-44.567,368.648-23.03,368.648-23.03V296.148s28.54-85.81-332.71-82.041S875.464,289.05,478.641,296.148-.534,242.5-.534,242.5Z" transform="translate(1.533 6534.916)"/></g></svg>