<svg xmlns="http://www.w3.org/2000/svg" width="1921.978" height="1197.35" viewBox="0 0 1921.978 1197.35"><defs><style>.a,.d{fill:#eef0f8;}.b{fill:#eccee4;}.c{fill:#d7e2ef;}.d{opacity:0.608;}</style></defs><g transform="translate(-1 -8343.388)"><path class="a" d="M1446.976,0C1309.17,0,1150.769,15.81,983.066,32.548c-126.544,12.63-257.393,25.69-387.682,32.762-88.12,4.784-184.735,7.209-287.16,7.209-40.25,0-81.494-.379-122.587-1.126-32.878-.6-65.743-1.432-97.683-2.478C33.144,67.119.325,65.329,0,65.311v3.223C.026,207.86.173,902.9.426,903.32a.334.334,0,0,1-.041.069l-.028.045-.033.053v17.148c12.027,25.1,82.613,69.9,420.217,87.922,27.369,1.461,56.937,2.2,87.883,2.2,34.836,0,71.551-.893,112.242-2.73,36.474-1.647,75.492-4.027,119.284-7.278,81.7-6.064,166.614-14.158,256.518-22.727,66.783-6.365,135.841-12.947,205.954-18.893,79.158-6.713,149.1-11.691,213.809-15.218,194.457-10.6,321.619-16.255,394.052-19.13,79.06-3.138,111.377-3.729,111.694-3.735V65.226a5.583,5.583,0,0,0-.43-2.084,17.163,17.163,0,0,0-3.7-5.611A46.3,46.3,0,0,0,1908.5,50.1a114.76,114.76,0,0,0-17.924-8.843c-17.8-7.158-42.268-13.54-72.711-18.967-37.808-6.741-85.057-12.034-140.436-15.732-31.37-2.1-65.883-3.71-102.58-4.8C1535.39.594,1492.367,0,1446.976,0Z" transform="translate(1922.978 9354.149) rotate(180)"/><path class="b" d="M-.531,457.729s159.5-143.739,639.5-143.739c246.24,0,850.074,149.014,1072.159,154.557s208.338-26.42,208.338-26.42V27.077s28.54,46.181-332.71,40.45S729.826-25.168,474.466-25.168c-480,0-475,99.659-475,99.659Z" transform="translate(1.533 8368.556)"/><path class="c" d="M1920,504.74s-159.5-157.732-639.5-157.732c-246.24,0-850.074,163.521-1072.159,169.6S0,487.62,0,487.62V32.163s-28.54,50.677,332.71,44.387S1189.64-25.168,1445-25.168c480,0,475,109.361,475,109.361Z" transform="translate(1.533 9023.417)"/><path class="d" d="M1919.466-42.511S1673.045,67.335,1245.13,65.376,683.4,48.995,364.875.357-.533,24.563-.533,24.563V330.476S53.924,587.778,385.05,654.3s539.3-41.267,938.918-57.732,595.5-178.781,595.5-178.781Z" transform="translate(1.533 8563.759)"/></g></svg>