<svg xmlns="http://www.w3.org/2000/svg" width="360.039" height="1067.717" viewBox="0 0 360.039 1067.717"><defs><style>.a,.d{fill:#eef0f8;}.b{fill:#eccee4;}.c{fill:#d7e2ef;}.d{opacity:0.608;}</style></defs><g transform="translate(0.002)"><path class="a" d="M78.689,985.382h0c-2.359,0-4.74-.035-7.077-.1A110.03,110.03,0,0,1,50.385,982.7,79.319,79.319,0,0,1,33.816,977,61.349,61.349,0,0,1,12.35,960.247,58.235,58.235,0,0,1,.06,932.937V861.522H-.018C-.035,655.594,0,70.767,0,65.066c.054.015,6.251,1.809,16.476,3.591,5.982,1.042,12.138,1.873,18.3,2.469,7.7.745,15.422,1.122,22.959,1.122a194.081,194.081,0,0,0,53.787-7.182c24.4-7.046,48.914-20.058,72.616-32.641C215.547,15.75,245.216,0,271.028,0a153.382,153.382,0,0,1,24.821,1.9,105.721,105.721,0,0,1,19.714,5.139,72.105,72.105,0,0,1,26.46,16.67,62.289,62.289,0,0,1,10.53,14.283,64.456,64.456,0,0,1,5.321,13.318A54.293,54.293,0,0,1,360,64.983l0,885.193c-.032-.04-3.505-4.289-11.3-8.447a67.231,67.231,0,0,0-15.418-5.808,95.948,95.948,0,0,0-23.083-2.64c-13.577,0-28.7,2.387-44.934,7.1-17.68,5.127-34.475,10.635-50.717,15.963-23.3,7.641-45.3,14.858-67.562,20.219a334.507,334.507,0,0,1-33.627,6.422A255.781,255.781,0,0,1,78.689,985.382Z" transform="translate(359.999 1006.975) rotate(180)"/><path class="b" d="M-.533,457.729S29.245,313.99,118.859,313.99c45.972,0,158.7,149.014,200.167,154.557s38.9-26.42,38.9-26.42L359.465-8.147s3.785,46.181-63.658,40.45-159.985-57.47-207.66-57.47c-89.614,0-88.68,64.435-88.68,64.435Z" transform="translate(0.534 25.168)"/><path class="c" d="M359.465,386.5s-56.19-40.544-120.837-39.492-79.429,38.108-139.195,43.7S-.535,369.379-.535,369.379l.1-337.216S-5.763,82.84,61.681,76.551,221.666-25.168,269.341-25.168c89.614,0,88.68,109.361,88.68,109.361Z" transform="translate(0.534 676.243)"/><path class="d" d="M357.488-42.511S311.538,67.335,231.744,65.376,127,48.995,67.6.357-.533,24.563-.533,24.563V330.476s10.155,257.3,71.9,323.826S171.93,613.035,246.445,596.57,357.488,417.789,357.488,417.789Z" transform="translate(0.534 239.64)"/></g></svg>