<svg xmlns="http://www.w3.org/2000/svg" width="1921.531" height="597.86" viewBox="0 0 1921.531 597.86"><defs><style>.a{fill:#eccee4;}.b{fill:#eef0f8;opacity:0.404;}</style></defs><g transform="translate(0 -4034)"><path class="a" d="M1920,457.729s-159.5-143.739-639.5-143.739C1034.254,313.99,430.42,463,208.335,468.547S0,442.127,0,442.127V27.077s-28.54,46.181,332.71,40.45S1189.64-25.168,1445-25.168c480,0,475,99.659,475,99.659Z" transform="translate(0.533 4162.667)"/><path class="b" d="M-.534-230.77s284.361,127.9,672.2,155.677,560.625-.406,879.153-44.567,368.648-23.03,368.648-23.03V296.148s28.54-85.81-332.71-82.041S875.464,289.05,478.641,296.148-.534,242.5-.534,242.5Z" transform="translate(1.533 4264.77)"/></g></svg>