<svg xmlns="http://www.w3.org/2000/svg" xmlns:xlink="http://www.w3.org/1999/xlink" width="359.9" height="268.479" viewBox="0 0 359.9 268.479"><defs><style>.a{opacity:0.404;fill:url(#a);}.b{fill:#eef0f8;opacity:0.608;}</style><linearGradient id="a" x1="-0.01" y1="0.61" x2="1.049" y2="0.443" gradientUnits="objectBoundingBox"><stop offset="0" stop-color="#e20067"/><stop offset="1" stop-color="#0b4acf"/></linearGradient></defs><g transform="translate(0 -101.855)"><path class="a" d="M-.533,193.721s54.217-30.9,119.072-30.9,79.895,14.485,140.35,30.9,100.379,0,100.379,0V1.584s5.348,23.647-62.349,20.712S176.3-25.5,101.941-24.611-.533,25.863-.533,25.863Z" transform="translate(0.534 169.319)"/><path class="b" d="M359.8-66.021S308.95-51.762,219-60.467,0-100.839,0-100.839V41.466s6.01,53.836,92.485,61.9S195.64,136.818,270,136.134s89.8-51.707,89.8-51.707Z" transform="translate(0.002 202.694)"/></g></svg>