<svg xmlns="http://www.w3.org/2000/svg" xmlns:xlink="http://www.w3.org/1999/xlink" width="1921.31" height="414.802" viewBox="0 0 1921.31 414.802"><defs><style>.a{opacity:0.404;fill:url(#a);}.b{fill:#eef0f8;opacity:0.608;}</style><linearGradient id="a" x1="-0.01" y1="0.61" x2="1.049" y2="0.443" gradientUnits="objectBoundingBox"><stop offset="0" stop-color="#e20067"/><stop offset="1" stop-color="#0b4acf"/></linearGradient></defs><g transform="translate(0 -1594.966)"><path class="a" d="M-.531,369.966s159.5-95.937,639.5-95.937c246.24,0,850.074,53,1072.159,57.892s208.338-23.307,208.338-23.307V20.921s28.54,40.74-332.71,35.684S729.826-25.168,474.466-25.168c-480,0-475,87.917-475,87.917Z" transform="translate(0.533 1639.802)"/><path class="b" d="M1920,5.4S1702.027,117.356,1274.111,115.39,790.138,91.042,575.407,59.6-1.137,5.4-1.137,5.4l-.175,178.08S56.061,289.748,417.312,293.914,1044,360.145,1440.823,358.88,1920,263.158,1920,263.158Z" transform="translate(1.312 1589.57)"/></g></svg>