<svg xmlns="http://www.w3.org/2000/svg" width="360.27" height="498.764" viewBox="0 0 360.27 498.764"><defs><style>.a{fill:#eccee4;}.b{fill:#eef0f8;opacity:0.404;}</style></defs><g transform="translate(0.175 -32.075)"><path class="a" d="M359.479,419.069S327.433,369.24,237.707,369.24c-46.029,0-157.683,54.686-199.2,59.789S-.521,404.7-.521,404.7V-30.066S-7.112,12.455,60.416,7.178,221.944-25.556,269.678-25.556c89.726,0,89.8,34.229,89.8,34.229Z" transform="translate(0.522 101.215)"/><path class="b" d="M-1.533-198.694S33.9-176.787,98.158-168.745s106.758-2.859,165.41-13.626,94.906,7.765,94.906,7.765l-.008,424.426s5.236-38.188-62.292-34.407-140.861,27.9-215.038,35.02-82.67-53.8-82.67-53.8Z" transform="translate(1.534 230.77)"/></g></svg>