<svg xmlns="http://www.w3.org/2000/svg" xmlns:xlink="http://www.w3.org/1999/xlink" width="361.146" height="3502.941" viewBox="0 0 361.146 3502.941"><defs><style>.a,.d{fill:#eef0f8;}.b{fill:#eccee4;}.c{fill:#d7e2ef;}.d{opacity:0.608;}.e{opacity:0.404;fill:url(#a);}</style><linearGradient id="a" x1="-0.01" y1="0.61" x2="1.049" y2="0.443" gradientUnits="objectBoundingBox"><stop offset="0" stop-color="#e20067"/><stop offset="1" stop-color="#0b4acf"/></linearGradient></defs><g transform="translate(0.052 -5718.654)"><path class="a" d="M271.065,3425.071a23.232,23.232,0,0,1-9.86-2.411,46.73,46.73,0,0,1-10.2-6.836c-6.518-5.567-13.492-13.6-21.318-24.571-6.64-9.3-13.742-20.467-22.351-35.135-7.6-12.944-15.156-26.543-23.159-40.942-23.7-42.642-48.207-86.737-72.61-110.616-16.5-16.15-34.6-24.339-53.784-24.339a73.73,73.73,0,0,0-22.96,3.8A98.074,98.074,0,0,0,.053,3204.56c0-4.14,0-100.23-.008-259.427C.032,2417.239,0,1181.009,0,505.416H.112V247.464H0C0,99.8.009,30.8.016,30.321a.021.021,0,0,0,.017.005,20.19,20.19,0,0,0,2.138-.86A278.112,278.112,0,0,1,64.049,11.091a239.143,239.143,0,0,1,40.44-3.562c3.63,0,7.283.093,10.858.276C145.7,9.36,164.4,18.061,182.479,26.477l.01,0c9.395,4.372,18.268,8.5,28.606,11.64A117.28,117.28,0,0,0,227.758,41.9a130.205,130.205,0,0,0,19.695,1.425c1.638,0,3.314-.027,4.98-.081a156.49,156.49,0,0,0,42.624-7.581,194.4,194.4,0,0,0,34.127-14.776,207.077,207.077,0,0,0,22.656-14.41c5.122-3.764,8.086-6.372,8.21-6.481l-.019,3204.847c0,.095.033,9.667-.7,24.6-.679,13.762-2.168,34.991-5.41,57.974-3.644,25.835-8.714,48.575-15.068,67.588a189.592,189.592,0,0,1-12.7,29.975,100.546,100.546,0,0,1-16.973,23.47,59.142,59.142,0,0,1-17.289,12.2,49.687,49.687,0,0,1-9.948,3.279A51.748,51.748,0,0,1,271.065,3425.071Z" transform="translate(-0.052 5718.654)"/><path class="b" d="M359.125,457.729S328.223,313.99,238.614,313.99c-45.969,0-158.7,149.014-200.155,154.557S-.875,442.127-.875,442.127v-452.4S-6.1,35.913,61.336,30.181,160.684-22.546,235.381-24.34,360.125,23,360.125,23Z" transform="translate(0.969 5757.415)"/><path class="c" d="M-1.533,401.68s-2.659-58.748,86.949-58.748c45.969,0,123.267,9.527,191.529,20.044s81.521,45.629,81.521,45.629L357.9,30.683s5.328,49.368-62.112,43.241S135.813-25.168,88.141-25.168C-1.467-25.168-.533,81.37-.533,81.37Z" transform="translate(1.533 8812.989)"/><path class="d" d="M-.534-42.511S45.414,67.335,125.2,65.376,229.941,48.995,289.333.357s68.134,24.206,68.134,24.206V330.476s-20.823-.525-82.564,66-89.889,216.561-164.4,200.1S-.534,330.476-.534,330.476Z" transform="translate(2.533 6790.734)"/><path class="e" d="M-.534-230.77S52.552-102.87,124.955-75.092,229.614-75.5,289.078-119.66s68.821-23.03,68.821-23.03l.568,416.108s4.76-63.081-62.679-59.312S164.744,258.973,90.664,266.071s-92.2-39.691-92.2-39.691Z" transform="translate(1.533 8936.631)"/></g></svg>