<svg xmlns="http://www.w3.org/2000/svg" width="998.69" height="678.226" viewBox="0 0 998.69 678.226"><defs><style>.a{fill:#181716;}.b,.c,.d,.e{fill:none;stroke-miterlimit:10;}.b,.c{stroke:#e20067;}.b{stroke-width:7px;}.c{stroke-width:3px;}.d,.e{stroke:#0044d2;}.d{stroke-width:9px;}.e{stroke-width:5px;}</style></defs><g transform="translate(-488.286 -310.508)"><g transform="translate(488.286 315.686)"><g transform="translate(355.943 351.33)"><path class="a" d="M863.523,681.162h10v22.675c-5.934,4.793-14.224,7.231-22.269,7.231-17.637,0-30.641-12.271-30.641-29.256s13-29.259,30.8-29.259c9.508,0,17.472,3.171,22.837,9.264l-6.664,6.5a21.116,21.116,0,0,0-15.686-6.5c-12.109,0-20.642,8.209-20.642,19.994,0,11.541,8.534,19.992,20.561,19.992a23,23,0,0,0,11.7-2.925Z" transform="translate(-820.61 -652.554)"/><path class="a" d="M922.775,710.236l-11.622-16.662a19.58,19.58,0,0,1-2.2.082H896.116v16.58H885.552V653.344h23.4c14.954,0,24.222,7.64,24.222,20.237,0,8.614-4.391,14.954-12.111,17.961l13.085,18.693Zm-14.3-47.951H896.116v22.674h12.356c9.264,0,14.059-4.226,14.059-11.377S917.735,662.284,908.471,662.284Z" transform="translate(-818.741 -652.531)"/><path class="a" d="M939.354,681.813c0-16.824,13-29.259,30.639-29.259s30.639,12.355,30.639,29.259-13,29.256-30.639,29.256S939.354,698.636,939.354,681.813Zm50.63,0c0-11.622-8.534-19.994-19.991-19.994S950,670.19,950,681.813s8.534,19.992,19.994,19.992S989.984,693.435,989.984,681.813Z" transform="translate(-817.192 -652.554)"/><path class="a" d="M1091.383,653.344l-18.856,56.892H1061.31l-14.06-42.1-14.3,42.1h-11.3l-18.857-56.892h10.973l14.141,43.237,14.711-43.237h9.753l14.384,43.48,14.549-43.48Z" transform="translate(-815.366 -652.531)"/><path class="a" d="M1097.286,653.344h10.566v56.892h-10.566Z" transform="translate(-812.647 -652.531)"/><path class="a" d="M1173.037,653.344v56.892h-8.7l-31.372-38.524v38.524h-10.483V653.344h8.7l31.372,38.524V653.344Z" transform="translate(-811.922 -652.531)"/><path class="a" d="M1225.444,681.162h10v22.675c-5.934,4.793-14.223,7.231-22.269,7.231-17.636,0-30.639-12.271-30.639-29.256s13-29.259,30.8-29.259c9.509,0,17.474,3.171,22.839,9.264l-6.665,6.5a21.112,21.112,0,0,0-15.685-6.5c-12.111,0-20.645,8.209-20.645,19.994,0,11.541,8.534,19.992,20.564,19.992a23,23,0,0,0,11.7-2.925Z" transform="translate(-810.193 -652.554)"/><path class="a" d="M1265.328,681.813c0-16.824,13-29.259,30.639-29.259s30.639,12.355,30.639,29.259-13,29.256-30.639,29.256S1265.328,698.636,1265.328,681.813Zm50.631,0c0-11.622-8.534-19.994-19.992-19.994s-19.994,8.372-19.994,19.994,8.534,19.992,19.994,19.992S1315.959,693.435,1315.959,681.813Z" transform="translate(-807.81 -652.554)"/><path class="a" d="M1335.324,685.447v-32.1h10.567v31.7c0,11.7,5.282,16.742,14.466,16.742s14.385-5.038,14.385-16.742v-31.7h10.4v32.1c0,16.579-9.345,25.6-24.869,25.6C1344.672,711.046,1335.324,702.026,1335.324,685.447Z" transform="translate(-805.796 -652.531)"/><path class="a" d="M1435.358,710.236l-11.622-16.662a19.581,19.581,0,0,1-2.2.082H1408.7v16.58h-10.567V653.344h23.4c14.954,0,24.222,7.64,24.222,20.237,0,8.614-4.391,14.954-12.111,17.961l13.085,18.693Zm-14.3-47.951H1408.7v22.674h12.352c9.264,0,14.059-4.226,14.059-11.377S1430.317,662.284,1421.053,662.284Z" transform="translate(-803.988 -652.531)"/></g><g transform="translate(60.084 112.981)"><path class="a" d="M575.941,449.48h10v22.675c-5.934,4.794-14.224,7.232-22.269,7.232-17.636,0-30.64-12.271-30.64-29.258s13-29.258,30.8-29.258c9.509,0,17.472,3.17,22.837,9.264l-6.664,6.5a21.117,21.117,0,0,0-15.685-6.5c-12.11,0-20.643,8.209-20.643,19.993,0,11.541,8.534,19.993,20.561,19.993a22.991,22.991,0,0,0,11.7-2.926Z" transform="translate(-533.028 -420.873)"/><path class="a" d="M635.192,478.554,623.57,461.893a19.818,19.818,0,0,1-2.2.081H608.534v16.58H597.969V421.662h23.406c14.954,0,24.221,7.64,24.221,20.237,0,8.615-4.39,14.954-12.111,17.961l13.086,18.693Zm-14.3-47.951H608.534v22.674h12.355c9.264,0,14.06-4.226,14.06-11.378S630.152,430.6,620.888,430.6Z" transform="translate(-531.159 -420.85)"/><path class="a" d="M651.771,450.131c0-16.824,13-29.258,30.64-29.258s30.639,12.354,30.639,29.258-13,29.258-30.639,29.258S651.771,466.954,651.771,450.131Zm50.633,0c0-11.622-8.534-19.993-19.992-19.993s-19.994,8.371-19.994,19.993,8.534,19.993,19.994,19.993S702.4,461.753,702.4,450.131Z" transform="translate(-529.61 -420.873)"/><path class="a" d="M803.8,421.662l-18.856,56.892H773.728l-14.06-42.1-14.3,42.1h-11.3l-18.856-56.892h10.972L740.326,464.9l14.711-43.238h9.753l14.385,43.482,14.548-43.482Z" transform="translate(-527.784 -420.85)"/><path class="a" d="M905.048,421.662v56.892h-8.7L864.98,440.03v38.524H854.5V421.662h8.7l31.372,38.524V421.662Z" transform="translate(-523.776 -420.85)"/><path class="a" d="M957.453,449.48h10v22.675c-5.935,4.794-14.224,7.232-22.27,7.232-17.636,0-30.639-12.271-30.639-29.258s13-29.258,30.8-29.258c9.509,0,17.474,3.17,22.839,9.264l-6.665,6.5a21.114,21.114,0,0,0-15.685-6.5c-12.11,0-20.645,8.209-20.645,19.993,0,11.541,8.535,19.993,20.564,19.993a22.988,22.988,0,0,0,11.7-2.926Z" transform="translate(-522.047 -420.873)"/><path class="a" d="M997.338,450.131c0-16.824,13-29.258,30.639-29.258s30.64,12.354,30.64,29.258-13,29.258-30.64,29.258S997.338,466.954,997.338,450.131Zm50.632,0c0-11.622-8.534-19.993-19.992-19.993s-19.994,8.371-19.994,19.993,8.534,19.993,19.994,19.993S1047.97,461.753,1047.97,450.131Z" transform="translate(-519.664 -420.873)"/><path class="a" d="M1067.334,453.765v-32.1H1077.9v31.7c0,11.7,5.283,16.742,14.466,16.742s14.385-5.039,14.385-16.742v-31.7h10.4v32.1c0,16.579-9.346,25.6-24.869,25.6C1076.682,479.365,1067.334,470.344,1067.334,453.765Z" transform="translate(-517.65 -420.85)"/><path class="a" d="M1167.367,478.554l-11.622-16.661a19.821,19.821,0,0,1-2.2.081h-12.839v16.58h-10.567V421.662h23.406c14.954,0,24.221,7.64,24.221,20.237,0,8.615-4.39,14.954-12.111,17.961l13.086,18.693Zm-14.3-47.951h-12.353v22.674h12.353c9.264,0,14.06-4.226,14.06-11.378S1162.327,430.6,1153.063,430.6Z" transform="translate(-515.842 -420.85)"/></g><path class="a" d="M891.849,753.767a33.94,33.94,0,0,1,14.93,12.454,37.34,37.34,0,0,1,0,38.136,33.338,33.338,0,0,1-14.93,12.453q-9.693,4.316-22.854,4.316H849.041v27.311H826.117V749.378h42.878Q882.156,749.378,891.849,753.767Zm-8.42,44.222q5.376-4.458,5.378-12.666,0-8.349-5.378-12.807t-15.707-4.456H849.041v34.385h18.681Q878.049,802.445,883.429,797.989Z" transform="translate(-464.508 -298.437)"/><path class="a" d="M1002.129,830.04v18.4h-76.7V749.378h74.859v18.4H948.212v21.511H994.2v17.831H948.212V830.04Z" transform="translate(-461.65 -298.437)"/><path class="a" d="M1037.791,843.53a49.35,49.35,0,0,1-19.389-18.324,52.7,52.7,0,0,1,0-52.5,49.4,49.4,0,0,1,19.389-18.326,61.314,61.314,0,0,1,55.543,0,50.519,50.519,0,0,1,0,89.151,61.288,61.288,0,0,1-55.543,0Zm43.657-16.909a28.975,28.975,0,0,0,11.108-11.251,35.435,35.435,0,0,0,0-32.832,28.97,28.97,0,0,0-11.108-11.249,33.163,33.163,0,0,0-31.7,0,28.926,28.926,0,0,0-11.108,11.249,35.418,35.418,0,0,0,0,32.832,28.932,28.932,0,0,0,11.108,11.251,33.155,33.155,0,0,0,31.7,0Z" transform="translate(-459.175 -298.485)"/><path class="a" d="M1199.278,753.767A33.942,33.942,0,0,1,1214.2,766.22a37.335,37.335,0,0,1,0,38.136,33.34,33.34,0,0,1-14.927,12.453q-9.7,4.316-22.854,4.316H1156.47v27.311h-22.924V749.378h42.877Q1189.581,749.378,1199.278,753.767Zm-8.423,44.222q5.377-4.458,5.378-12.666,0-8.349-5.378-12.807t-15.706-4.456H1156.47v34.385h18.678Q1185.479,802.445,1190.855,797.989Z" transform="translate(-455.66 -298.437)"/><path class="a" d="M1232.857,749.378h22.924v139.89h49.67v18.679h-72.594Z" transform="translate(-452.802 -298.437)"/><path class="a" d="M1380.074,830.04v18.4h-76.7V749.378h74.859v18.4h-52.077v21.511h45.99v17.831h-45.99V830.04Z" transform="translate(-450.772 -298.437)"/><path class="b" d="M1182.328,915.329c5.861,6.077,112.558,115.326,221.14-16.231" transform="translate(-454.256 -294.128)"/><path class="b" d="M1182.328,915.355c5.861,5.079,112.558,92.814,221.14-17.141" transform="translate(-454.256 -294.153)"/><path class="c" d="M1171.463,929.12s-4.992-25.653,18.65-29.281" transform="translate(-454.581 -294.107)"/><path class="c" d="M1388.511,879.471s30.885-1.216,27.573,36.3" transform="translate(-448.322 -294.693)"/><g transform="translate(0 210.894)"><path class="a" d="M560.662,574.232q4.808,6.3,4.811,15.5,0,13.02-10.116,20.022t-29.5,7.006H474.625V517.7H523.02q18.112,0,27.808,6.934a21.953,21.953,0,0,1,9.692,18.821,23.8,23.8,0,0,1-13.161,21.794A26.133,26.133,0,0,1,560.662,574.232Zm-63.256-39.27v23.349h22.785q8.491,0,12.875-2.971a9.915,9.915,0,0,0,4.388-8.773,9.745,9.745,0,0,0-4.388-8.7q-4.386-2.9-12.875-2.9Zm40.4,61.557q4.6-2.971,4.6-9.2,0-12.31-18.256-12.31H497.406v24.482h26.746Q533.208,599.492,537.808,596.519Z" transform="translate(-474.625 -515.999)"/><path class="a" d="M590.841,606.708q-11.815-11.744-11.815-33.538V517.7h22.924v54.623q0,26.606,22.078,26.6,10.753,0,16.414-6.439t5.66-20.165V517.7h22.642V573.17q0,21.8-11.817,33.538t-33.043,11.746Q602.659,618.454,590.841,606.708Z" transform="translate(-471.62 -515.999)"/><path class="a" d="M698.294,615.317q-10.967-3.183-17.619-8.278l7.785-17.264a52.819,52.819,0,0,0,15.14,7.5,56.844,56.844,0,0,0,17.549,2.83q9.762,0,14.433-2.9t4.671-7.712a7.377,7.377,0,0,0-2.759-5.873,20.964,20.964,0,0,0-7.075-3.75q-4.319-1.412-11.676-3.112a161.049,161.049,0,0,1-18.539-5.378,30.087,30.087,0,0,1-12.38-8.633q-5.168-5.943-5.166-15.849a27.566,27.566,0,0,1,4.671-15.636q4.666-7,14.08-11.109t22.994-4.1a76.23,76.23,0,0,1,18.539,2.264,54.8,54.8,0,0,1,15.849,6.509l-7.075,17.406q-13.731-7.781-27.453-7.783-9.628,0-14.223,3.113a9.5,9.5,0,0,0-4.6,8.208q0,5.094,5.309,7.571t16.2,4.883a161.924,161.924,0,0,1,18.539,5.378,30.735,30.735,0,0,1,12.383,8.489q5.163,5.805,5.166,15.708a27.06,27.06,0,0,1-4.741,15.5q-4.744,7-14.223,11.108t-23.066,4.1A81,81,0,0,1,698.294,615.317Z" transform="translate(-468.694 -516.047)"/><path class="a" d="M911.964,517.7v99.058H893.142l-49.388-60.144v60.144H821.115V517.7h18.96l49.246,60.143V517.7Z" transform="translate(-464.652 -515.999)"/><path class="a" d="M1008.955,598.36v18.4h-76.7V517.7h74.859v18.4H955.038V557.6h45.992v17.83H955.038V598.36Z" transform="translate(-461.454 -515.999)"/><path class="a" d="M1034.6,615.317q-10.967-3.183-17.616-8.278l7.783-17.264a52.82,52.82,0,0,0,15.142,7.5,56.835,56.835,0,0,0,17.547,2.83q9.765,0,14.435-2.9t4.671-7.712a7.379,7.379,0,0,0-2.761-5.873,20.943,20.943,0,0,0-7.075-3.75q-4.317-1.412-11.674-3.112a160.679,160.679,0,0,1-18.539-5.378,30.116,30.116,0,0,1-12.383-8.633q-5.166-5.943-5.165-15.849a27.567,27.567,0,0,1,4.671-15.636q4.671-7,14.08-11.109t23-4.1a76.187,76.187,0,0,1,18.536,2.264,54.791,54.791,0,0,1,15.849,6.509l-7.075,17.406q-13.727-7.781-27.453-7.783-9.623,0-14.222,3.113a9.5,9.5,0,0,0-4.6,8.208q0,5.094,5.305,7.571t16.2,4.883A162.244,162.244,0,0,1,1081.8,563.6a30.725,30.725,0,0,1,12.38,8.489q5.168,5.805,5.166,15.708a27.053,27.053,0,0,1-4.742,15.5q-4.742,7-14.222,11.108t-23.064,4.1A81.03,81.03,0,0,1,1034.6,615.317Z" transform="translate(-459.015 -516.047)"/><path class="a" d="M1122.361,615.317q-10.967-3.183-17.619-8.278l7.785-17.264a52.82,52.82,0,0,0,15.14,7.5,56.843,56.843,0,0,0,17.549,2.83q9.762,0,14.433-2.9t4.671-7.712a7.377,7.377,0,0,0-2.759-5.873,20.964,20.964,0,0,0-7.075-3.75q-4.32-1.412-11.676-3.112a161.043,161.043,0,0,1-18.539-5.378,30.087,30.087,0,0,1-12.38-8.633q-5.168-5.943-5.165-15.849a27.567,27.567,0,0,1,4.671-15.636q4.667-7,14.08-11.109t22.994-4.1a76.23,76.23,0,0,1,18.539,2.264,54.8,54.8,0,0,1,15.849,6.509l-7.075,17.406q-13.731-7.781-27.453-7.783-9.628,0-14.223,3.113a9.5,9.5,0,0,0-4.6,8.208q0,5.094,5.309,7.571t16.2,4.883a161.937,161.937,0,0,1,18.539,5.378,30.733,30.733,0,0,1,12.383,8.489q5.164,5.805,5.166,15.708a27.059,27.059,0,0,1-4.741,15.5q-4.744,7-14.223,11.108t-23.066,4.1A81,81,0,0,1,1122.361,615.317Z" transform="translate(-456.489 -516.047)"/></g><path class="d" d="M739.529,665.757S783.011,648.07,803.647,513.2c18.7-122.247,97.212-178,97.212-178" transform="translate(-467.001 -310.358)"/><path class="e" d="M840.99,355.788l71.6-44.735-15.95,80.937" transform="translate(-464.08 -311.053)"/></g></g></svg>