<svg xmlns="http://www.w3.org/2000/svg" xmlns:xlink="http://www.w3.org/1999/xlink" width="611.165" height="178.718" viewBox="-237 -20 611.165 178.718" enable-background="new -237 -20 611.165 178.718"><defs><path id="a" d="M-237-20h611.165v178.718H-237z"/></defs><clipPath id="b"><use xlink:href="#a" overflow="visible"/></clipPath><g clip-path="url(#b)"><defs><path id="c" d="M-237-20h611.165v178.718H-237z"/></defs><clipPath id="d"><use xlink:href="#c" overflow="visible"/></clipPath><path clip-path="url(#d)" fill="#0044D2" d="M-237-20h611.165v178.718H-237z"/><g clip-path="url(#d)"><defs><path id="e" d="M-237-20v95.07c75.75 31.609 185.068 51.453 306.626 51.453 120.442 0 228.876-19.484 304.539-50.588V-20H-237z"/></defs><clipPath id="g"><use xlink:href="#e" overflow="visible"/></clipPath><defs><filter id="f" filterUnits="userSpaceOnUse" x="-237" y="-20" width="611.165" height="146.523"><feColorMatrix values="1 0 0 0 0 0 1 0 0 0 0 0 1 0 0 0 0 0 1 0"/></filter></defs><mask maskUnits="userSpaceOnUse" x="-237" y="-20" width="611.165" height="146.523" id="i"><g filter="url(#f)"><radialGradient id="h" cx="-888.864" cy="1077.014" r="1" gradientTransform="matrix(306.2261 0 0 -113.6058 272263.219 122324.54)" gradientUnits="userSpaceOnUse"><stop offset="0" stop-color="#fff"/><stop offset="0" stop-color="#fff"/><stop offset=".105" stop-color="#ececec"/><stop offset=".317" stop-color="#bcbcbc"/><stop offset=".618" stop-color="#6d6d6d"/><stop offset=".993" stop-color="#020202"/><stop offset="1"/></radialGradient><path clip-path="url(#g)" fill="url(#h)" d="M-237-20h611.165v146.523H-237z"/></g></mask><radialGradient id="j" cx="-888.864" cy="1077.014" r="1" gradientTransform="matrix(306.2261 0 0 -113.6058 272263.219 122324.54)" gradientUnits="userSpaceOnUse"><stop offset="0" stop-color="#09a0d7"/><stop offset="0" stop-color="#09a0d7"/><stop offset=".291" stop-color="#078dc9"/><stop offset=".876" stop-color="#015da6"/><stop offset="1" stop-color="#00529e"/></radialGradient><path clip-path="url(#g)" mask="url(#i)" fill="url(#j)" d="M-237-20h611.165v146.523H-237z"/></g><g clip-path="url(#d)"><defs><path id="k" d="M24.508-20C8.5 7.77-.256 37.854-.256 69.278c0 31.484 8.79 61.625 24.856 89.439h349.565V-20H24.508z"/></defs><clipPath id="m"><use xlink:href="#k" overflow="visible"/></clipPath><defs><filter id="l" filterUnits="userSpaceOnUse" x="-.256" y="-20" width="374.421" height="178.718"><feColorMatrix values="1 0 0 0 0 0 1 0 0 0 0 0 1 0 0 0 0 0 1 0"/></filter></defs><mask maskUnits="userSpaceOnUse" x="-.256" y="-20" width="374.421" height="178.718" id="o"><g filter="url(#l)"><radialGradient id="n" cx="-888.723" cy="1073.126" r="1" gradientTransform="matrix(287.211 0 0 -220.5958 255639.156 236796.422)" gradientUnits="userSpaceOnUse"><stop offset="0" stop-color="#fff"/><stop offset=".086" stop-color="#f7f7f7"/><stop offset=".218" stop-color="#e1e1e1"/><stop offset=".381" stop-color="#bebebe"/><stop offset=".567" stop-color="#8d8d8d"/><stop offset=".773" stop-color="#4e4e4e"/><stop offset=".994" stop-color="#020202"/><stop offset="1"/></radialGradient><path clip-path="url(#m)" fill="url(#n)" d="M-.256-20h374.421v178.718H-.256z"/></g></mask><radialGradient id="p" cx="-888.723" cy="1073.126" r="1" gradientTransform="matrix(287.211 0 0 -220.5958 255639.156 236796.422)" gradientUnits="userSpaceOnUse"><stop offset="0" stop-color="#e20067"/><stop offset=".093" stop-color="#da0369"/><stop offset=".238" stop-color="#c50b6e"/><stop offset=".414" stop-color="#a11877"/><stop offset=".617" stop-color="#702983"/><stop offset=".839" stop-color="#324092"/><stop offset="1" stop-color="#00529e"/></radialGradient><path clip-path="url(#m)" mask="url(#o)" fill="url(#p)" d="M-.256-20h374.421v178.718H-.256z"/></g><g clip-path="url(#d)"><defs><path id="q" d="M-237-20h611.165v178.718H-237z"/></defs><clipPath id="r"><use xlink:href="#q" overflow="visible"/></clipPath><path clip-path="url(#r)" fill="#FFF" d="M211.508 67.021c0-23.778 18.795-42.246 42.246-42.246s42.41 18.468 42.41 42.246c0 23.765-18.959 42.247-42.41 42.247s-42.246-18.482-42.246-42.247m70.681 0c0-16.231-12.367-28.591-28.436-28.591-15.896 0-28.27 12.359-28.27 28.591 0 16.218 12.373 28.591 28.27 28.591 16.069 0 28.436-12.373 28.436-28.591m-157.306 0c0-23.778 17.991-42.246 42.247-42.246 15.904 0 29.396 8.345 35.503 21.044l-11.725 6.736c-4.022-8.515-13.014-14.125-23.778-14.125-16.062 0-28.271 12.359-28.271 28.591 0 16.061 12.209 28.421 28.271 28.421 10.927 0 19.756-5.611 24.255-13.968l11.891 6.905c-6.75 12.529-20.404 20.889-36.146 20.889-24.256.001-42.247-18.482-42.247-42.247m-12.261 0c0 23.765-18.312 42.247-40.644 42.247-13.649 0-23.93-6.109-30.358-15.905v38.176H27.645V26.855H41.62V40.68c6.429-9.81 16.709-15.904 30.358-15.904 22.333-.001 40.644 18.467 40.644 42.245m-13.976 0c0-16.389-12.373-28.761-28.435-28.761-16.225 0-28.592 12.372-28.592 28.761 0 16.375 12.367 28.749 28.592 28.749 16.062.001 28.435-12.374 28.435-28.749M-27.177 96.098c11.085 0 19.116-5.142 23.131-11.733l11.889 6.749c-7.069 10.921-19.279 18.155-35.34 18.155-25.858 0-43.051-18.155-43.051-42.247 0-23.778 17.03-42.246 42.089-42.246 24.256 0 39.997 19.92 39.997 42.403 0 2.093-.163 4.173-.484 6.265h-67.306c2.734 14.452 14.138 22.654 29.075 22.654M-56.252 61.24h53.651c-2.406-15.905-13.811-23.294-25.858-23.294-15.1 0-25.544 9.312-27.793 23.294m-26.558 5.781c0 23.765-18.311 42.247-40.644 42.247-13.648 0-23.929-6.109-30.357-15.905v38.176h-13.975V26.855h13.975V40.68c6.428-9.81 16.709-15.904 30.357-15.904 22.333-.001 40.644 18.467 40.644 42.245m-13.975 0c0-16.389-12.373-28.761-28.435-28.761-16.224 0-28.591 12.372-28.591 28.761 0 16.375 12.367 28.749 28.591 28.749 16.062.001 28.435-12.374 28.435-28.749m407.27-31.136l9.298 9.298 9.299-9.298a6.45 6.45 0 001.894-4.58 6.49 6.49 0 00-6.482-6.483 6.438 6.438 0 00-4.579 1.896l-.131.13-.13-.13a6.446 6.446 0 00-4.581-1.896c-3.574 0-6.48 2.909-6.48 6.483a6.442 6.442 0 001.892 4.58m4.587-7.627c.813 0 1.577.315 2.153.891l2.483 2.479.074.07.075-.069 2.483-2.48a3.022 3.022 0 012.151-.891 3.05 3.05 0 013.048 3.047c0 .812-.318 1.577-.892 2.153l-6.866 6.866-6.865-6.866a3.028 3.028 0 01-.893-2.153 3.054 3.054 0 013.049-3.047"/><path clip-path="url(#r)" fill="#FFF" d="M319.783 13.818A19.646 19.646 0 00305.8 19.61a19.643 19.643 0 00-5.792 13.982 19.646 19.646 0 005.792 13.983 19.642 19.642 0 0013.983 5.793 19.645 19.645 0 0013.984-5.793 19.649 19.649 0 005.791-13.983 19.647 19.647 0 00-5.791-13.982 19.648 19.648 0 00-13.984-5.792m11.475 31.25a16.124 16.124 0 01-11.475 4.753 16.12 16.12 0 01-11.475-4.753c-3.065-3.065-4.754-7.141-4.754-11.476s1.688-8.41 4.754-11.475a16.118 16.118 0 0111.475-4.753c4.334 0 8.41 1.688 11.475 4.753 3.064 3.064 4.754 7.14 4.754 11.475s-1.69 8.411-4.754 11.476"/></g></g></svg>