<svg xmlns="http://www.w3.org/2000/svg" width="1920.001" height="90" viewBox="0 0 1920.001 90">
  <path id="Intersection_1" data-name="Intersection 1" d="M-10182.024,915.5c-101.07-.889-226.059-4.07-372.592-9.492-139.918-5.176-299.7-12.393-474.9-21.449-86.029-4.45-222.637-11.78-384.9-21.452-94.025-5.6-153.383-9.416-158.267-9.73V825.5h1920v32.256a20.123,20.123,0,0,1-2.033,2.569,42.9,42.9,0,0,1-8.929,7.037,110.826,110.826,0,0,1-17.479,8.464c-17.525,6.9-41.771,13.053-72.065,18.3-37.746,6.535-85.07,11.667-140.656,15.257-31.539,2.036-66.268,3.607-103.218,4.665-24.361.7-50.084,1.186-76.886,1.458Z" transform="translate(11572.678 -825.5)" fill="#eef0f8"/>
</svg>
