<svg xmlns="http://www.w3.org/2000/svg" width="1920.001" height="123.5" viewBox="0 0 1920.001 123.5">
  <path id="Intersection_1" data-name="Intersection 1" d="M-11572.65,81c.024-13.377.051-20.8.077-20.839a.455.455,0,0,0-.043-.07c-.018-.023-.038-.055-.062-.09V43.613c12.027-23.982,82.614-66.788,420.218-84.008,27.365-1.4,56.93-2.106,87.871-2.106,34.833,0,71.551.854,112.245,2.611,36.471,1.571,75.492,3.845,119.288,6.953,81.707,5.794,166.627,13.529,256.531,21.717,66.773,6.082,135.82,12.37,205.951,18.051,79.169,6.416,149.1,11.17,213.8,14.543C-9962.29,31.5-9835.14,36.9-9762.718,39.649c69.1,2.618,102.546,3.381,110.041,3.534V81Z" transform="translate(11572.678 42.501)" fill="#eef0f8"/>
</svg>
